{"glyphs":{":":{"x_min":0,"x_max":329,"ha":329,"o":"m 85 322 q 85 355 108 378 q 132 402 165 402 q 197 402 221 378 q 244 355 244 322 q 244 289 221 266 q 198 242 165 242 q 132 242 109 266 q 85 290 85 322 z m 85 69 q 85 102 108 125 q 132 149 165 149 q 197 149 221 125 q 244 102 244 69 q 244 37 221 13 q 198 -10 165 -10 q 132 -10 109 13 q 85 37 85 69 z"},"$":{"x_min":0,"x_max":604,"ha":604,"o":"m 228 428 l 228 618 q 184 606 160 579 q 136 552 136 514 q 136 482 158 462 q 180 441 228 428 z m 259 419 l 341 401 l 341 628 q 330 629 323 629 q 316 630 310 630 q 297 630 285 629 q 272 627 259 625 z m 228 27 l 228 279 q 155 295 116 342 q 77 389 77 460 q 77 526 118 576 q 158 627 228 647 l 228 703 l 259 703 l 259 654 q 274 657 286 658 q 299 659 310 659 q 315 659 323 659 q 330 658 341 657 l 341 703 l 372 703 l 372 654 q 439 640 478 603 q 516 566 516 517 q 516 488 500 471 q 484 454 458 454 q 430 454 415 469 q 399 483 399 509 q 399 540 421 559 q 443 577 443 582 q 443 594 424 606 q 405 617 372 624 l 372 394 q 458 372 501 326 q 544 280 544 210 q 544 129 500 77 q 457 24 372 5 l 372 -93 l 341 -93 l 341 0 q 316 -2 302 -3 q 288 -4 274 -4 l 259 -4 l 259 -93 l 228 -93 l 228 -3 q 142 4 99 40 q 57 76 57 141 q 57 180 77 202 q 97 224 132 224 q 161 224 177 207 q 193 189 193 157 q 193 137 186 124 q 179 111 160 99 q 156 97 148 92 q 132 84 132 76 q 132 61 159 46 q 187 32 228 27 z m 372 33 q 425 46 452 75 q 479 104 479 147 q 479 183 453 207 q 427 230 372 244 z m 259 24 q 285 24 305 25 q 325 26 341 28 l 341 252 l 259 271 z"},"?":{"x_min":0,"x_max":440,"ha":440,"o":"m 113 68 q 113 101 136 124 q 159 147 191 147 q 223 147 247 124 q 270 100 270 68 q 270 36 247 13 q 224 -10 191 -10 q 158 -10 135 13 q 113 35 113 68 z m 168 204 q 158 233 153 261 q 148 288 148 311 q 148 344 164 379 q 180 415 207 443 q 219 455 241 476 q 302 533 302 568 q 302 599 274 618 q 247 638 204 638 q 170 638 146 625 q 121 613 121 599 q 121 595 134 590 q 144 586 149 584 q 163 577 171 562 q 179 548 179 529 q 179 501 161 483 q 142 466 112 466 q 82 466 64 485 q 47 504 47 537 q 47 591 94 627 q 142 664 214 664 q 296 664 347 619 q 397 575 397 501 q 397 446 367 406 q 338 365 234 302 q 205 285 196 272 q 187 260 187 242 q 187 234 188 227 q 189 219 191 210 z"},"<":{"x_min":0,"x_max":833,"ha":833,"o":"m 704 583 l 704 476 l 268 298 l 704 120 l 704 13 l 129 250 l 129 347 z"},"'":{"x_min":0,"x_max":178,"ha":178,"o":"m 99 416 l 79 416 l 40 641 q 39 647 39 651 q 38 656 38 659 q 38 685 52 700 q 65 715 89 715 q 112 715 126 701 q 139 687 139 661 q 139 653 139 649 q 139 645 138 641 z"},"=":{"x_min":0,"x_max":833,"ha":833,"o":"m 124 242 l 709 242 l 709 145 l 124 145 z m 124 452 l 709 452 l 709 355 l 124 355 z"},"a":{"x_min":0,"x_max":492,"ha":492,"o":"m 298 58 q 268 22 233 6 q 197 -10 148 -10 q 98 -10 70 16 q 43 41 43 88 q 43 151 111 189 q 179 227 295 227 l 295 322 q 295 354 281 365 q 267 376 228 376 q 203 376 190 370 q 177 364 177 353 q 177 350 186 334 q 195 317 195 301 q 195 272 177 257 q 160 242 128 242 q 100 242 84 258 q 69 273 69 303 q 69 350 117 376 q 166 402 254 402 q 293 402 325 396 q 356 391 377 380 q 400 368 409 351 q 418 334 418 289 l 418 87 q 418 69 426 61 q 433 53 449 53 q 456 53 464 58 q 471 62 474 62 q 478 62 481 59 q 484 56 484 52 q 484 33 455 12 q 427 -10 390 -10 q 357 -10 333 8 q 309 26 298 58 z m 295 200 l 283 200 q 223 200 198 183 q 174 166 174 124 q 174 82 187 63 q 200 45 229 45 q 258 45 277 64 q 295 84 295 116 z"},"L":{"x_min":0,"x_max":605,"ha":605,"o":"m 42 0 l 42 32 l 109 32 l 109 620 l 42 620 l 42 650 l 366 650 l 366 620 l 276 620 l 276 32 l 371 32 q 451 32 497 75 q 542 117 568 217 l 599 217 l 592 0 z"},"3":{"x_min":0,"x_max":604,"ha":604,"o":"m 316 355 q 428 340 481 299 q 534 258 534 187 q 534 98 455 43 q 376 -12 246 -12 q 159 -12 103 24 q 48 61 48 116 q 48 153 68 175 q 88 197 121 197 q 155 197 177 177 q 198 158 198 128 q 198 94 171 72 q 144 50 144 47 q 144 35 170 27 q 196 18 235 18 q 299 18 330 57 q 362 96 362 175 q 362 258 324 298 q 286 337 206 337 q 196 337 182 336 q 167 335 163 335 q 153 335 147 340 q 142 344 142 353 q 142 361 148 366 q 154 371 164 371 q 167 371 177 370 q 188 369 196 369 q 271 369 304 404 q 337 439 337 519 q 337 583 316 609 q 295 635 245 635 q 216 635 197 628 q 178 621 178 611 q 178 608 188 601 q 222 575 222 542 q 222 510 203 491 q 184 472 152 472 q 123 472 105 491 q 88 510 88 540 q 88 595 139 630 q 191 665 274 665 q 374 665 435 624 q 496 583 496 517 q 496 461 450 421 q 403 381 316 363 z"},";":{"x_min":0,"x_max":329,"ha":329,"o":"m 126 -158 q 176 -121 202 -83 q 228 -46 228 -10 q 228 15 225 24 q 221 34 213 34 q 212 34 193 10 q 174 -14 146 -14 q 114 -14 97 5 q 80 23 80 58 q 80 97 104 121 q 128 146 167 146 q 215 146 246 111 q 277 77 277 22 q 277 -35 244 -85 q 211 -135 144 -179 z m 85 322 q 85 355 108 378 q 132 402 165 402 q 197 402 220 378 q 242 355 242 322 q 242 289 219 266 q 196 242 164 242 q 132 242 108 266 q 85 289 85 322 z"},"J":{"x_min":0,"x_max":440,"ha":440,"o":"m 170 -17 l 170 620 l 97 620 l 97 650 l 416 650 l 416 620 l 339 620 l 339 137 q 339 22 275 -47 q 211 -116 106 -116 q 51 -116 16 -86 q -19 -56 -19 -10 q -19 22 1 44 q 21 66 50 66 q 81 66 100 46 q 118 27 118 -6 q 118 -22 109 -41 q 100 -60 100 -65 q 100 -72 106 -76 q 113 -81 123 -81 q 144 -81 157 -63 q 170 -46 170 -17 z"},"V":{"x_min":0,"x_max":659,"ha":659,"o":"m 324 -15 l 63 620 l 8 620 l 8 650 l 314 650 l 314 620 l 239 620 l 405 218 l 524 555 q 530 570 532 581 q 535 591 535 597 q 535 610 526 615 q 516 620 485 620 l 445 620 l 445 650 l 652 650 l 652 620 l 624 620 q 599 620 585 607 q 571 593 555 548 l 354 -15 z"},"\"":{"x_min":0,"x_max":345,"ha":345,"o":"m 265 416 l 245 416 l 206 641 q 205 647 205 651 q 204 656 204 659 q 204 685 218 700 q 231 715 255 715 q 279 715 292 700 q 306 686 306 661 q 306 658 306 654 q 305 649 304 641 z m 99 416 l 79 416 l 40 641 q 40 645 39 648 q 39 652 39 659 q 39 685 53 700 q 66 715 89 715 q 112 715 126 701 q 139 687 139 661 q 139 653 139 649 q 139 645 138 641 z"},"7":{"x_min":0,"x_max":604,"ha":604,"o":"m 97 434 l 67 434 l 139 653 l 550 653 l 550 610 l 444 432 q 396 351 376 300 q 357 249 357 205 q 357 174 375 130 q 394 86 394 67 q 394 29 369 7 q 344 -15 301 -15 q 258 -15 235 7 q 212 30 212 72 q 212 126 305 272 q 326 305 337 323 l 463 526 l 173 526 q 149 526 137 518 q 124 509 117 489 z"},"S":{"x_min":0,"x_max":548,"ha":548,"o":"m 50 -8 l 50 183 l 88 183 q 113 100 162 58 q 211 15 282 15 q 346 15 388 49 q 430 83 430 136 q 430 165 420 183 q 410 201 386 217 q 359 235 278 253 q 249 260 233 264 q 139 288 96 334 q 53 381 53 459 q 53 550 110 607 q 167 663 259 663 q 296 663 329 653 q 361 642 390 621 l 426 650 l 457 650 l 461 478 l 428 478 q 409 554 365 593 q 320 633 254 633 q 199 633 163 606 q 128 579 128 538 q 128 477 258 448 q 276 444 285 442 q 407 414 456 362 q 505 310 505 214 q 505 115 442 50 q 379 -15 284 -15 q 236 -15 199 -4 q 163 7 131 31 l 86 -8 z"},"}":{"x_min":0,"x_max":500,"ha":500,"o":"m 84 740 q 199 740 241 705 q 283 669 283 571 l 283 477 q 283 396 311 366 q 338 336 414 329 l 414 292 q 338 285 311 255 q 283 225 283 144 l 283 50 q 283 -47 242 -83 q 200 -119 90 -119 l 84 -119 l 84 -90 q 142 -89 164 -63 q 186 -38 186 39 l 186 105 q 186 215 212 255 q 238 294 308 310 q 238 326 212 366 q 186 406 186 516 l 186 581 q 186 657 164 683 q 142 709 84 710 z"},"Z":{"x_min":0,"x_max":547,"ha":547,"o":"m 11 0 l 11 37 l 341 620 l 237 620 q 171 620 131 584 q 91 547 75 474 l 43 474 l 55 650 l 522 650 l 522 621 l 190 32 l 292 32 q 376 32 421 74 q 466 117 494 223 l 522 223 l 516 0 z"},"x":{"x_min":0,"x_max":549,"ha":549,"o":"m 18 0 l 18 30 l 47 30 q 71 30 86 36 q 102 42 115 57 l 217 168 l 64 360 l 18 360 l 18 390 l 277 390 l 277 360 l 227 360 l 305 263 l 377 340 q 381 344 383 347 q 385 350 385 353 q 385 357 381 358 q 377 360 369 360 l 330 360 l 330 390 l 494 390 l 494 360 l 470 360 q 450 360 434 353 q 419 347 406 332 l 322 241 l 488 30 l 528 30 l 528 0 l 273 0 l 273 30 l 327 30 l 234 147 l 153 57 q 152 56 151 55 q 144 46 144 42 q 144 37 150 33 q 156 30 165 30 l 197 30 l 197 0 z"},")":{"x_min":0,"x_max":370,"ha":370,"o":"m 50 -230 l 50 -207 q 115 -145 147 -61 q 178 22 178 134 l 178 299 q 178 411 147 495 q 115 579 50 641 l 50 663 q 180 553 243 444 q 305 334 305 217 q 305 99 242 -11 q 180 -121 50 -230 z"},"&":{"x_min":0,"x_max":765,"ha":765,"o":"m 489 0 l 454 53 q 407 18 352 0 q 297 -17 234 -17 q 141 -17 88 30 q 34 77 34 158 q 34 230 85 285 q 136 339 237 374 q 214 408 201 444 q 189 479 189 512 q 189 576 242 619 q 295 662 376 662 q 462 662 513 628 q 564 595 564 538 q 564 491 525 457 q 486 423 408 401 l 549 197 q 579 238 596 276 q 614 314 614 338 q 614 356 604 363 q 594 369 563 369 l 518 369 l 518 399 l 747 399 l 747 369 l 716 369 q 688 369 673 359 q 659 350 646 315 q 626 263 608 231 q 590 198 567 171 l 664 31 l 745 31 l 745 0 z m 390 425 q 423 440 438 467 q 452 494 452 544 q 452 588 434 610 q 416 631 378 631 q 343 631 325 618 q 306 604 306 580 q 306 558 318 532 q 330 506 361 464 z m 253 350 q 216 335 198 313 q 180 291 180 260 q 180 234 195 197 q 210 160 240 111 q 260 79 287 60 q 313 42 340 42 q 362 42 387 52 q 413 63 435 82 z"},"_":{"x_min":0,"x_max":500,"ha":500,"o":"m 0 -136 l 500 -136 l 500 -236 l 0 -236 z"},"v":{"x_min":0,"x_max":493,"ha":493,"o":"m 227 -14 l 46 360 l 4 360 l 4 390 l 244 390 l 244 360 l 194 360 l 291 141 l 370 322 q 374 329 375 334 q 376 339 376 344 q 376 352 369 356 q 362 360 349 360 l 306 360 l 306 390 l 467 390 l 467 360 l 440 360 q 427 360 420 354 q 412 348 405 332 l 254 -14 z"},"O":{"x_min":0,"x_max":769,"ha":769,"o":"m 242 324 q 242 199 246 152 q 250 105 261 82 q 277 46 306 31 q 334 15 384 15 q 434 15 462 31 q 491 46 507 82 q 518 107 522 157 q 527 207 527 324 q 527 441 522 491 q 518 541 507 566 q 491 602 462 617 q 434 633 384 633 q 334 633 306 617 q 277 602 261 566 q 250 543 246 496 q 242 449 242 324 z m 48 324 q 48 390 73 450 q 99 510 147 560 q 199 612 257 638 q 315 663 384 663 q 453 663 511 638 q 569 612 621 560 q 670 510 696 449 q 721 389 721 324 q 721 258 696 197 q 670 137 621 87 q 571 35 512 10 q 454 -15 384 -15 q 314 -15 256 10 q 198 35 147 87 q 99 137 73 198 q 48 258 48 324 z"},"(":{"x_min":0,"x_max":370,"ha":370,"o":"m 319 -230 q 189 -121 127 -11 q 64 99 64 217 q 64 334 126 444 q 189 553 319 663 l 319 641 q 253 578 222 494 q 190 410 190 299 l 190 134 q 190 23 222 -61 q 253 -144 319 -207 z"},"C":{"x_min":0,"x_max":658,"ha":658,"o":"m 600 195 l 600 0 l 568 0 l 524 36 q 495 10 456 -3 q 417 -16 368 -16 q 301 -16 246 10 q 190 36 142 89 q 95 141 71 199 q 48 258 48 325 q 48 391 72 449 q 95 508 143 560 q 191 612 248 638 q 304 664 371 664 q 412 664 449 652 q 485 641 519 617 l 554 651 l 587 651 l 591 471 l 556 471 q 524 558 480 596 q 436 634 369 634 q 294 634 267 584 q 240 535 240 337 q 240 232 243 181 q 245 129 251 106 q 263 57 291 36 q 319 14 369 14 q 438 14 492 65 q 547 115 563 195 z"},"W":{"x_min":0,"x_max":933,"ha":933,"o":"m 541 483 l 602 622 l 482 622 z m 324 -15 l 63 620 l 8 620 l 8 650 l 691 650 l 691 620 l 662 620 q 647 620 639 614 q 630 607 622 588 l 558 446 l 666 195 l 797 556 q 801 567 804 578 q 806 588 806 595 q 806 609 799 615 q 792 620 773 620 l 733 620 l 733 650 l 923 650 l 923 620 l 892 620 q 870 620 857 607 q 843 595 828 553 l 622 -15 l 595 -15 l 478 265 l 351 -15 z m 406 182 l 461 305 l 327 622 l 225 622 z"},"A":{"x_min":0,"x_max":659,"ha":659,"o":"m 175 216 l 351 216 l 265 444 z m 2 0 l 2 32 l 42 32 q 58 32 69 43 q 80 54 91 82 l 314 663 l 353 663 l 597 32 l 655 32 l 655 0 l 340 0 l 340 32 l 419 32 l 362 184 l 164 184 l 121 73 q 120 70 119 64 q 118 58 118 50 q 118 42 126 37 q 133 32 147 32 l 205 32 l 205 0 z"},"f":{"x_min":0,"x_max":328,"ha":328,"o":"m 74 30 l 74 360 l 11 360 l 11 390 l 74 390 l 74 411 q 74 520 134 592 q 193 663 282 663 q 335 663 367 639 q 399 615 399 577 q 399 546 383 530 q 366 513 336 513 q 310 513 293 529 q 276 544 276 569 q 276 586 289 602 q 302 618 302 621 q 302 627 294 631 q 286 635 273 635 q 242 635 226 611 q 209 586 209 541 q 209 517 210 479 q 212 441 212 428 l 212 390 l 298 390 l 298 360 l 212 360 l 212 30 l 282 30 l 282 0 l 16 0 l 16 30 z"},"Q":{"x_min":0,"x_max":769,"ha":769,"o":"m 242 324 q 242 199 246 152 q 250 105 261 82 q 277 46 306 31 q 334 15 384 15 q 434 15 462 31 q 491 46 507 82 q 518 107 522 157 q 527 207 527 324 q 527 441 522 491 q 518 541 507 566 q 491 602 462 617 q 434 633 384 633 q 334 633 306 617 q 277 602 261 566 q 250 543 246 496 q 242 449 242 324 z m 663 -177 l 663 -210 q 633 -213 604 -214 q 576 -216 552 -216 q 412 -216 352 -174 q 291 -131 291 -35 q 291 -28 291 -20 q 292 -12 292 -3 q 181 36 115 125 q 48 214 48 324 q 48 390 73 450 q 99 510 147 560 q 199 612 257 638 q 315 663 384 663 q 453 663 511 638 q 569 612 621 560 q 670 510 696 449 q 721 389 721 324 q 721 214 654 124 q 586 33 477 -3 q 476 -17 475 -30 q 474 -43 474 -55 q 474 -124 503 -152 q 533 -181 601 -181 q 621 -181 660 -177 z"},"w":{"x_min":0,"x_max":660,"ha":660,"o":"m 207 -14 l 57 360 l 6 360 l 6 390 l 247 390 l 247 360 l 197 360 l 271 162 l 369 390 l 398 390 l 500 166 l 561 331 q 561 332 562 333 q 563 339 563 342 q 563 352 557 356 q 551 360 535 360 l 501 360 l 501 390 l 652 390 l 652 360 l 627 360 q 614 360 605 353 q 597 346 589 325 l 463 -14 l 442 -14 l 329 229 l 227 -14 z"},"-":{"x_min":0,"x_max":376,"ha":376,"o":"m 59 136 l 59 257 l 316 257 l 316 136 z"},"E":{"x_min":0,"x_max":659,"ha":659,"o":"m 31 0 l 31 32 l 110 32 l 110 620 l 42 620 l 42 650 l 584 650 l 586 479 l 553 479 q 520 562 486 591 q 452 620 386 620 l 274 620 l 274 353 q 278 353 283 352 q 288 352 297 352 q 350 352 377 380 q 405 408 413 471 l 446 471 l 446 194 l 413 194 q 408 261 380 291 q 352 320 293 320 l 274 320 l 274 32 l 383 32 q 463 32 509 75 q 554 117 580 217 l 611 217 l 604 0 z"},"s":{"x_min":0,"x_max":383,"ha":383,"o":"m 42 0 l 42 145 l 67 145 q 84 81 120 48 q 157 15 210 15 q 252 15 279 35 q 305 56 305 86 q 305 124 218 135 q 193 138 179 140 q 102 151 71 179 q 40 207 40 262 q 40 326 78 364 q 116 402 181 402 q 206 402 230 396 q 254 390 276 379 l 297 397 l 317 397 l 320 286 l 295 286 q 279 332 251 355 q 223 378 182 378 q 143 378 117 362 q 91 347 91 324 q 91 292 192 279 q 208 277 217 276 q 296 266 327 235 q 359 204 359 139 q 359 69 318 29 q 278 -11 207 -11 q 173 -11 144 -3 q 116 6 94 22 l 66 0 z"},">":{"x_min":0,"x_max":833,"ha":833,"o":"m 129 583 l 704 347 l 704 250 l 129 13 l 129 120 l 566 298 l 129 476 z"},"l":{"x_min":0,"x_max":275,"ha":275,"o":"m 7 30 l 65 30 l 65 620 l 1 620 l 1 650 q 55 651 105 655 q 156 658 203 662 l 203 30 l 266 30 l 266 0 l 7 0 z"},"8":{"x_min":0,"x_max":604,"ha":604,"o":"m 301 323 q 248 323 226 284 q 204 246 204 140 q 204 66 225 41 q 245 16 304 16 q 360 16 378 42 q 397 69 397 182 q 397 259 375 291 q 353 323 301 323 z m 305 637 q 255 637 239 614 q 223 590 223 487 q 223 416 241 387 q 258 358 300 358 q 347 358 364 388 q 382 419 382 533 q 382 597 366 617 q 351 637 305 637 z m 235 341 l 235 348 q 150 366 108 405 q 66 443 66 503 q 66 575 130 621 q 195 666 299 666 q 406 666 473 620 q 539 575 539 503 q 539 441 497 403 q 455 365 366 346 l 366 340 q 462 324 513 281 q 564 238 564 174 q 564 86 494 37 q 424 -13 301 -13 q 177 -13 107 34 q 37 82 37 165 q 37 236 89 283 q 141 329 235 341 z"},"\\":{"x_min":0,"x_max":273,"ha":273,"o":"m 244 -93 l 1 663 l 57 663 l 300 -93 z"},"e":{"x_min":0,"x_max":492,"ha":492,"o":"m 194 242 l 326 242 l 326 318 q 326 350 310 364 q 294 378 260 378 q 227 378 210 363 q 194 348 194 318 z m 438 132 l 461 124 q 436 55 388 22 q 340 -11 264 -11 q 160 -11 98 44 q 36 99 36 191 q 36 282 100 342 q 165 402 262 402 q 352 402 404 352 q 456 303 456 217 l 456 212 l 194 212 l 194 114 q 194 57 212 35 q 229 14 274 14 q 334 14 375 44 q 416 73 438 132 z"},"b":{"x_min":0,"x_max":553,"ha":553,"o":"m 206 157 q 206 94 235 56 q 265 17 311 17 q 342 17 354 30 q 366 43 366 79 l 366 308 q 366 344 355 358 q 344 373 318 373 q 267 373 237 335 q 206 296 206 232 z m 16 0 l 16 30 l 70 30 l 70 620 l 16 620 l 16 650 q 62 651 110 654 q 157 657 206 662 l 206 327 q 229 365 260 383 q 292 402 334 402 q 414 402 466 343 q 518 284 518 194 q 518 106 465 47 q 412 -12 334 -12 q 292 -12 260 6 q 229 24 206 62 l 206 0 z"},"%":{"x_min":0,"x_max":948,"ha":948,"o":"m 658 89 q 658 59 672 43 q 687 28 714 28 q 742 28 770 48 q 797 68 823 107 q 845 140 857 180 q 869 220 869 260 q 869 296 855 317 q 840 337 815 337 q 795 337 776 321 q 757 306 734 270 q 700 217 679 165 q 658 113 658 89 z m 684 -5 q 620 -5 583 31 q 546 67 546 129 q 546 164 561 203 q 575 241 603 278 q 639 325 684 352 q 729 378 775 378 q 831 378 863 344 q 895 311 895 253 q 895 207 877 158 q 858 109 826 69 q 795 31 760 13 q 726 -5 684 -5 z m 375 566 q 357 573 343 583 q 328 594 315 609 q 292 605 273 588 q 254 570 228 525 q 198 472 181 428 q 165 384 165 357 q 165 334 180 320 q 196 305 220 305 q 250 305 279 326 q 308 347 335 387 q 356 419 367 455 q 378 491 378 527 q 378 537 377 547 q 376 556 375 566 z m 249 -31 l 600 587 q 571 565 538 555 q 505 545 466 545 q 452 545 436 547 q 419 549 401 554 q 401 549 402 544 q 402 538 402 527 q 402 483 389 443 q 376 403 351 366 q 319 320 279 296 q 238 272 194 272 q 131 272 92 308 q 53 344 53 403 q 53 450 73 496 q 93 541 132 583 q 164 618 203 636 q 242 655 283 655 q 323 655 350 639 q 376 623 391 590 q 413 581 432 576 q 450 572 468 572 q 528 572 574 598 q 619 624 656 678 l 704 678 l 299 -31 z"},"m":{"x_min":0,"x_max":823,"ha":823,"o":"m 25 30 l 79 30 l 79 361 l 17 361 l 17 391 q 63 391 112 393 q 160 396 213 400 l 213 300 q 241 352 278 376 q 316 400 369 400 q 424 400 453 375 q 481 351 483 303 q 511 354 549 377 q 586 400 640 400 q 674 400 698 391 q 722 382 738 363 q 747 352 751 336 q 755 321 755 292 l 755 263 l 755 30 l 816 30 l 816 0 l 568 0 l 568 30 l 620 30 l 620 305 q 620 333 610 345 q 601 357 579 357 q 542 357 512 314 q 482 272 482 216 l 482 30 l 531 30 l 531 0 l 299 0 l 299 30 l 350 30 l 350 305 q 350 333 340 345 q 331 357 309 357 q 273 357 243 314 q 214 271 214 216 l 214 30 l 263 30 l 263 0 l 25 0 z"},"#":{"x_min":0,"x_max":769,"ha":769,"o":"m 344 416 l 300 293 l 429 293 l 472 416 z m 347 715 l 452 715 l 380 512 l 504 512 l 577 715 l 681 715 l 609 512 l 747 512 l 711 415 l 575 415 l 532 294 l 675 294 l 640 198 l 498 198 l 426 -5 l 321 -5 l 393 198 l 269 198 l 196 -5 l 91 -5 l 163 198 l 22 198 l 58 294 l 198 294 l 241 415 l 93 415 l 129 512 l 275 512 z"},",":{"x_min":0,"x_max":302,"ha":302,"o":"m 108 -158 q 158 -121 184 -83 q 210 -46 210 -10 q 210 14 206 24 q 203 34 194 34 q 194 34 175 10 q 156 -14 128 -14 q 96 -14 79 5 q 61 24 61 58 q 61 97 85 121 q 109 146 148 146 q 196 146 228 111 q 259 76 259 22 q 259 -35 226 -84 q 192 -134 125 -179 z"},"n":{"x_min":0,"x_max":549,"ha":549,"o":"m 16 30 l 76 30 l 76 362 l 10 362 l 10 393 q 62 393 113 395 q 163 396 213 400 l 213 301 q 242 353 280 376 q 317 400 372 400 q 437 400 462 373 q 487 346 487 259 l 487 30 l 545 30 l 545 0 l 301 0 l 301 30 l 352 30 l 352 306 q 352 333 342 346 q 333 358 311 358 q 274 358 244 315 q 214 272 214 217 l 214 30 l 264 30 l 264 0 l 16 0 z"},"h":{"x_min":0,"x_max":549,"ha":549,"o":"m 9 30 l 69 30 l 69 623 l 3 623 l 3 653 q 56 653 107 655 q 159 658 207 662 l 207 300 q 236 352 274 376 q 312 400 366 400 q 429 400 455 373 q 481 347 481 275 l 481 30 l 539 30 l 539 0 l 294 0 l 294 30 l 346 30 l 346 305 q 346 333 336 345 q 327 357 305 357 q 268 357 238 314 q 207 271 207 216 l 207 30 l 258 30 l 258 0 l 9 0 z"},"z":{"x_min":0,"x_max":440,"ha":440,"o":"m 28 0 l 28 21 l 248 360 l 180 360 q 146 360 123 335 q 100 310 73 237 l 46 237 l 51 390 l 401 390 l 401 366 l 182 30 l 250 30 q 292 30 319 59 q 347 87 377 167 l 404 167 l 397 0 z"},"B":{"x_min":0,"x_max":713,"ha":713,"o":"m 272 32 l 359 32 q 427 32 447 59 q 468 85 468 181 q 468 271 443 300 q 419 329 345 329 l 272 329 z m 272 357 l 334 357 q 405 357 428 381 q 450 406 450 489 q 450 579 430 600 q 411 620 328 620 l 272 620 z m 40 32 l 110 32 l 110 620 l 40 620 l 40 650 l 403 650 q 504 650 563 608 q 622 566 622 495 q 622 436 575 399 q 528 362 436 349 l 436 341 q 542 332 595 291 q 648 250 648 179 q 648 97 580 48 q 512 0 396 0 l 40 0 z"},"K":{"x_min":0,"x_max":767,"ha":767,"o":"m 292 356 l 524 590 q 530 597 533 601 q 535 604 535 609 q 535 613 531 617 q 526 620 520 620 l 453 620 l 453 649 l 693 649 l 693 620 l 653 620 q 624 620 603 611 q 583 602 551 570 l 414 431 l 683 32 l 761 32 l 761 0 l 414 0 l 414 32 l 493 32 l 292 332 z m 37 32 l 116 32 l 116 620 l 37 620 l 37 649 l 362 649 l 362 620 l 282 620 l 282 32 l 362 32 l 362 0 l 37 0 z"},"R":{"x_min":0,"x_max":713,"ha":713,"o":"m 31 32 l 108 32 l 108 620 l 31 620 l 31 650 l 394 650 q 506 650 566 613 q 626 577 626 508 q 626 438 570 397 q 514 356 410 351 l 410 343 q 516 329 560 277 q 604 225 604 111 q 604 64 613 49 q 623 34 646 34 q 655 34 666 36 q 677 39 690 43 l 700 16 q 668 1 638 -6 q 609 -14 587 -14 q 546 -14 513 -2 q 480 10 461 32 q 423 75 419 190 q 418 206 418 214 q 415 281 386 308 q 357 334 289 334 l 272 334 l 272 32 l 357 32 l 357 0 l 31 0 z m 272 366 l 354 366 q 410 366 429 389 q 449 413 449 488 q 449 583 433 601 q 417 620 354 620 l 272 620 z"},"T":{"x_min":0,"x_max":659,"ha":659,"o":"m 166 0 l 166 32 l 246 32 l 246 620 l 211 620 q 147 620 110 581 q 73 541 45 440 l 19 440 l 27 650 l 633 650 l 641 440 l 615 440 q 588 538 551 579 q 513 620 451 620 l 414 620 l 414 32 l 494 32 l 494 0 z"},"P":{"x_min":0,"x_max":657,"ha":657,"o":"m 31 32 l 110 32 l 110 620 l 31 620 l 31 650 l 367 650 q 504 650 571 609 q 638 568 638 484 q 638 396 569 351 q 500 307 362 307 l 274 307 l 274 32 l 366 32 l 366 0 l 31 0 z m 274 620 l 274 333 l 365 333 q 420 333 438 356 q 456 380 456 482 q 456 574 438 597 q 420 620 361 620 z"},"|":{"x_min":0,"x_max":500,"ha":500,"o":"m 200 764 l 301 764 l 301 -236 l 200 -236 z"},"t":{"x_min":0,"x_max":330,"ha":330,"o":"m 76 89 l 76 361 l 19 361 l 19 391 l 76 391 l 76 514 q 86 512 98 511 q 110 510 134 510 q 155 510 174 511 q 192 512 210 514 l 210 391 l 290 391 l 290 361 l 210 361 l 210 89 q 210 63 217 54 q 224 45 242 45 q 261 45 273 60 q 285 76 287 102 l 314 102 q 311 51 273 21 q 235 -10 175 -10 q 118 -10 97 9 q 76 28 76 89 z"},"M":{"x_min":0,"x_max":823,"ha":823,"o":"m 21 0 l 21 32 l 69 32 q 88 32 98 44 q 108 57 108 80 l 108 620 l 21 620 l 21 650 l 302 650 l 416 275 l 537 650 l 803 650 l 803 620 l 719 620 l 719 32 l 801 32 l 801 0 l 471 0 l 471 32 l 559 32 l 559 612 l 557 612 l 365 0 l 331 0 l 142 618 l 142 83 q 142 55 152 43 q 163 32 189 32 l 232 32 l 232 0 z"},"g":{"x_min":0,"x_max":491,"ha":491,"o":"m 106 -37 q 95 -51 90 -65 q 85 -80 85 -95 q 85 -144 122 -169 q 159 -195 228 -195 q 313 -195 365 -162 q 417 -129 417 -77 q 417 -54 402 -46 q 386 -37 337 -37 z m 178 233 q 178 194 190 180 q 202 165 232 165 q 262 165 274 180 q 286 194 286 233 l 286 311 q 286 350 274 364 q 262 378 232 378 q 202 378 190 364 q 178 350 178 311 z m 74 -28 q 44 -13 29 10 q 14 34 14 66 q 14 106 39 134 q 63 161 107 169 l 107 174 q 76 187 60 210 q 43 234 43 266 q 43 324 95 363 q 148 402 229 402 q 273 402 309 390 q 345 379 373 356 q 391 386 406 399 q 422 412 440 412 q 462 412 475 399 q 488 385 488 363 q 488 344 477 332 q 466 320 449 320 q 431 320 417 332 q 403 344 401 344 q 398 344 396 343 q 395 342 392 338 q 406 321 413 305 q 419 290 419 270 q 419 210 369 176 q 318 142 229 142 q 206 142 173 145 q 140 147 130 147 q 97 147 79 138 q 61 129 61 112 q 61 96 76 91 q 91 85 159 85 l 329 85 q 401 85 430 60 q 460 34 460 -26 q 460 -117 396 -168 q 332 -219 217 -219 q 118 -219 66 -192 q 14 -164 14 -112 q 14 -87 29 -68 q 43 -49 74 -34 z"},"j":{"x_min":0,"x_max":287,"ha":287,"o":"m 79 559 q 79 588 100 608 q 120 629 149 629 q 177 629 197 609 q 217 588 217 559 q 217 530 197 509 q 178 489 149 489 q 120 489 100 510 q 79 530 79 559 z m 219 68 q 219 -64 164 -142 q 109 -219 18 -219 q -22 -219 -47 -198 q -72 -177 -72 -144 q -72 -120 -56 -105 q -41 -90 -16 -90 q 8 -90 23 -104 q 39 -119 39 -141 q 39 -148 36 -158 q 32 -168 32 -172 q 32 -178 38 -181 q 43 -185 52 -185 q 69 -185 75 -167 q 82 -149 82 -87 l 82 360 l 12 360 l 12 390 q 69 392 121 395 q 172 397 219 402 z"},"i":{"x_min":0,"x_max":275,"ha":275,"o":"m 68 559 q 68 588 89 608 q 109 629 138 629 q 167 629 186 609 q 206 588 206 559 q 206 530 186 510 q 166 489 137 489 q 108 489 88 510 q 68 530 68 559 z m 12 0 l 12 30 l 71 30 l 71 360 l 6 360 l 6 390 q 61 392 111 395 q 162 397 209 402 l 209 30 l 271 30 l 271 0 z"},"y":{"x_min":0,"x_max":493,"ha":493,"o":"m 219 -115 q 196 -168 170 -194 q 143 -219 110 -219 q 79 -219 62 -203 q 46 -188 46 -158 q 46 -133 63 -116 q 80 -99 105 -99 q 130 -99 147 -116 q 164 -133 168 -133 q 176 -133 181 -127 q 187 -121 194 -104 l 238 -1 l 54 360 l 12 360 l 12 390 l 251 390 l 251 360 l 202 360 l 300 151 l 374 322 q 377 329 379 334 q 380 338 380 344 q 380 352 373 356 q 366 360 353 360 l 315 360 l 315 390 l 471 390 l 471 360 l 444 360 q 431 360 423 354 q 415 347 409 332 z"},"@":{"x_min":0,"x_max":986,"ha":986,"o":"m 574 156 q 544 107 509 83 q 473 60 430 60 q 361 60 322 104 q 282 149 282 227 q 282 283 307 335 q 331 388 377 431 q 411 462 449 479 q 488 495 528 495 q 575 495 601 473 q 628 451 636 406 l 660 486 l 753 486 l 668 184 l 667 181 q 660 152 660 138 q 660 115 670 102 q 680 89 697 89 q 713 89 738 101 q 764 113 786 132 q 836 175 863 238 q 890 301 890 377 q 890 511 798 595 q 706 678 559 678 q 492 678 431 660 q 371 641 320 605 q 235 546 190 454 q 144 363 144 251 q 144 87 247 -9 q 350 -105 523 -105 q 604 -105 679 -80 q 754 -56 829 -4 l 848 -29 q 774 -84 693 -112 q 611 -139 523 -139 q 432 -139 353 -117 q 275 -94 218 -52 q 144 3 104 84 q 65 165 65 261 q 65 337 90 407 q 116 477 165 536 q 236 621 334 667 q 433 712 547 712 q 717 712 820 620 q 922 527 922 374 q 922 295 893 228 q 864 160 810 111 q 781 85 748 72 q 715 58 681 58 q 633 58 605 83 q 578 109 574 156 z m 546 463 q 516 463 491 441 q 466 419 442 371 q 414 315 399 266 q 385 217 385 177 q 385 138 402 115 q 418 93 447 93 q 478 93 508 123 q 537 153 564 212 q 583 257 595 302 q 606 348 606 382 q 606 421 590 442 q 575 463 546 463 z"},".":{"x_min":0,"x_max":302,"ha":302,"o":"m 71 69 q 71 102 94 125 q 118 149 151 149 q 184 149 207 125 q 230 102 230 69 q 230 37 207 13 q 184 -10 151 -10 q 118 -10 94 13 q 71 37 71 69 z"},"p":{"x_min":0,"x_max":553,"ha":553,"o":"m 366 91 l 366 297 q 366 344 355 359 q 344 373 316 373 q 267 373 236 334 q 206 296 206 232 l 206 157 q 206 92 236 54 q 266 16 316 16 q 344 16 355 31 q 366 46 366 91 z m 12 -219 l 12 -189 l 68 -189 l 68 360 l 3 360 l 3 390 q 58 392 108 395 q 159 397 206 402 l 206 327 q 229 365 260 383 q 292 402 334 402 q 414 402 466 343 q 518 284 518 194 q 518 106 465 47 q 412 -12 334 -12 q 292 -12 260 6 q 229 24 206 62 l 206 -189 l 278 -189 l 278 -219 z"},"X":{"x_min":0,"x_max":657,"ha":657,"o":"m 1 0 l 1 32 l 49 32 q 69 32 81 38 q 92 44 110 71 l 260 291 l 59 620 l 1 620 l 1 650 l 317 650 l 317 620 l 250 620 l 362 430 l 472 594 q 473 595 474 597 q 478 603 478 608 q 478 614 473 617 q 468 620 458 620 l 396 620 l 396 650 l 617 650 l 617 620 l 574 620 q 542 620 531 614 q 519 608 504 587 l 379 406 l 604 32 l 657 32 l 657 0 l 344 0 l 344 32 l 415 32 l 277 261 l 154 74 q 150 68 147 61 q 145 54 145 49 q 145 41 151 37 q 158 32 170 32 l 226 32 l 226 0 z"},"*":{"x_min":0,"x_max":500,"ha":500,"o":"m 242 466 q 242 508 219 556 q 197 604 197 615 q 197 637 211 650 q 225 663 250 663 q 274 663 289 649 q 303 636 303 614 q 303 604 281 557 q 259 510 257 467 q 276 476 294 493 q 312 511 327 535 q 329 538 333 544 q 360 586 390 586 q 409 586 425 568 q 441 550 441 529 q 441 509 426 495 q 411 480 391 480 q 353 480 321 473 q 290 466 266 453 q 287 440 313 433 q 339 427 369 427 q 404 427 422 414 q 441 401 441 376 q 441 354 425 336 q 409 319 388 319 q 361 319 332 364 q 329 369 327 371 q 311 396 294 412 q 277 429 258 439 q 258 397 281 349 q 303 302 303 291 q 303 268 289 256 q 275 243 250 243 q 226 243 211 256 q 197 270 197 292 q 197 303 219 349 q 241 396 243 438 q 224 429 206 412 q 188 395 173 371 q 170 367 167 361 q 139 319 110 319 q 91 319 75 337 q 59 354 59 376 q 59 396 74 410 q 89 425 109 425 q 147 425 179 432 q 210 438 234 452 q 212 465 186 472 q 160 479 131 479 q 96 479 77 492 q 59 504 59 529 q 59 551 75 569 q 91 586 112 586 q 139 586 169 541 q 172 537 173 535 q 189 510 206 493 q 223 476 242 466 z"},"Y":{"x_min":0,"x_max":659,"ha":659,"o":"m 175 0 l 175 32 l 255 32 l 255 309 l 65 620 l 1 620 l 1 650 l 328 650 l 328 620 l 248 620 l 407 356 l 519 566 q 527 581 530 589 q 533 596 533 601 q 533 611 525 615 q 517 620 500 620 l 444 620 l 444 650 l 654 650 l 654 620 l 627 620 q 601 620 585 607 q 568 594 545 550 l 423 322 l 423 32 l 503 32 l 503 0 z"},"c":{"x_min":0,"x_max":493,"ha":493,"o":"m 420 132 l 443 124 q 420 57 375 24 q 330 -10 265 -10 q 171 -10 107 50 q 44 109 44 197 q 44 282 111 342 q 177 402 274 402 q 341 402 384 371 q 426 340 426 292 q 426 264 408 246 q 390 228 362 228 q 331 228 312 246 q 294 264 294 295 q 294 317 310 336 q 325 354 325 356 q 325 368 313 373 q 300 379 274 379 q 230 379 213 358 q 197 338 197 257 l 197 137 q 197 62 214 40 q 231 18 276 18 q 328 18 364 47 q 400 76 420 132 z"},"!":{"x_min":0,"x_max":329,"ha":329,"o":"m 243 68 q 243 36 220 13 q 197 -10 164 -10 q 132 -10 109 13 q 86 36 86 68 q 86 101 109 124 q 132 147 164 147 q 197 147 220 124 q 243 101 243 68 z m 151 215 l 151 231 q 151 284 146 329 q 141 374 130 416 q 126 433 106 486 q 87 539 87 572 q 87 615 108 639 q 128 663 165 663 q 201 663 222 640 q 242 616 242 575 q 242 541 217 468 q 205 434 200 416 q 188 378 183 330 q 178 282 178 215 z"},"/":{"x_min":0,"x_max":273,"ha":273,"o":"m 29 -93 l -26 -93 l 218 663 l 273 663 z"},"[":{"x_min":0,"x_max":370,"ha":370,"o":"m 94 -207 l 94 649 l 338 649 l 338 617 l 206 617 l 206 -175 l 338 -175 l 338 -207 z"},"6":{"x_min":0,"x_max":604,"ha":604,"o":"m 219 319 q 215 295 214 265 q 212 234 212 195 q 212 87 233 52 q 253 16 308 16 q 362 16 381 53 q 400 89 400 216 q 400 325 383 354 q 365 384 318 384 q 290 384 264 367 q 238 350 219 319 z m 223 363 q 244 391 275 405 q 307 419 348 419 q 440 419 501 361 q 563 302 563 216 q 563 170 545 132 q 528 93 492 59 q 455 24 407 5 q 359 -13 305 -13 q 193 -13 119 67 q 45 146 45 268 q 45 342 73 408 q 101 475 154 527 q 219 592 303 626 q 387 661 487 665 l 487 637 q 368 628 300 557 q 231 486 223 363 z"},"r":{"x_min":0,"x_max":438,"ha":438,"o":"m 26 0 l 26 30 l 79 30 l 79 360 l 25 360 l 25 390 q 72 392 119 395 q 167 397 214 402 l 214 295 q 234 345 266 374 q 299 402 336 402 q 373 402 398 378 q 423 354 423 319 q 423 288 403 267 q 383 247 352 247 q 325 247 307 267 q 288 286 288 314 q 288 325 294 336 q 300 347 300 351 q 300 354 298 355 q 295 357 292 357 q 271 357 244 309 q 217 260 217 207 l 217 30 l 289 30 l 289 0 z"},"2":{"x_min":0,"x_max":604,"ha":604,"o":"m 38 0 l 38 90 l 218 230 q 292 287 325 345 q 359 402 359 471 q 359 544 324 585 q 289 626 225 626 q 183 626 147 602 q 112 578 112 557 q 112 551 116 548 q 121 545 131 545 l 137 545 q 176 545 199 526 q 221 507 221 474 q 221 442 202 422 q 182 403 150 403 q 110 403 85 430 q 61 458 61 502 q 61 573 127 619 q 192 666 295 666 q 403 666 465 620 q 527 574 527 494 q 527 431 480 373 q 434 314 330 249 l 149 136 l 149 129 l 436 129 q 463 129 474 136 q 485 144 487 164 l 493 221 l 525 221 l 515 0 z"},"{":{"x_min":0,"x_max":500,"ha":500,"o":"m 416 740 l 416 710 q 357 709 335 684 q 314 658 314 581 l 314 516 q 314 406 288 366 q 262 326 192 310 q 262 294 288 255 q 314 215 314 105 l 314 39 q 314 -38 335 -63 q 357 -89 416 -90 l 416 -119 q 301 -119 260 -84 q 218 -48 218 50 l 218 144 q 218 225 190 255 q 163 285 87 292 l 87 329 q 163 336 190 366 q 218 396 218 477 l 218 571 q 218 669 260 705 q 301 740 416 740 z"},"9":{"x_min":0,"x_max":604,"ha":604,"o":"m 381 290 q 360 262 329 248 q 297 234 256 234 q 164 234 103 292 q 41 351 41 437 q 41 482 58 521 q 76 559 112 593 q 150 628 198 647 q 246 666 299 666 q 411 666 485 586 q 558 507 558 385 q 558 310 531 244 q 503 178 450 126 q 385 62 301 27 q 217 -8 117 -12 l 117 15 q 235 24 304 95 q 373 167 381 290 z m 384 334 q 388 360 390 391 q 392 422 392 457 q 392 565 371 601 q 351 637 296 637 q 242 637 223 600 q 204 563 204 437 q 204 328 222 298 q 239 268 286 268 q 314 268 339 285 q 365 302 384 334 z"}," ":{"x_min":0,"x_max":302,"ha":302,"o":""},"I":{"x_min":0,"x_max":383,"ha":383,"o":"m 27 0 l 27 32 l 107 32 l 107 620 l 27 620 l 27 650 l 355 650 l 355 620 l 275 620 l 275 32 l 355 32 l 355 0 z"},"H":{"x_min":0,"x_max":768,"ha":768,"o":"m 31 0 l 31 32 l 110 32 l 110 620 l 31 620 l 31 649 l 353 649 l 353 620 l 275 620 l 275 353 l 493 353 l 493 620 l 415 620 l 415 649 l 736 649 l 736 620 l 657 620 l 657 32 l 736 32 l 736 0 l 415 0 l 415 32 l 493 32 l 493 316 l 275 316 l 275 32 l 353 32 l 353 0 z"},"4":{"x_min":0,"x_max":604,"ha":604,"o":"m 288 213 l 292 547 l 288 547 q 213 452 152 366 q 92 281 52 213 z m 196 0 l 196 30 l 283 30 l 283 182 l 23 182 l 23 224 q 115 366 198 478 q 280 589 349 666 l 434 666 l 434 213 l 541 213 l 541 287 l 563 287 l 563 111 l 541 111 l 541 182 l 434 182 l 434 30 l 511 30 l 511 0 z"},"~":{"x_min":0,"x_max":833,"ha":833,"o":"m 747 392 l 747 284 q 696 250 651 233 q 606 217 562 217 q 540 217 517 221 q 495 225 472 232 q 460 236 438 244 q 331 281 275 281 q 233 281 188 262 q 143 244 87 204 l 87 312 q 139 347 187 365 q 234 382 276 382 q 333 382 418 354 l 420 353 q 429 350 447 344 q 522 317 564 317 q 605 317 649 335 q 693 353 747 392 z"},"D":{"x_min":0,"x_max":766,"ha":766,"o":"m 38 32 l 117 32 l 117 620 l 38 620 l 38 650 l 371 650 q 442 650 493 636 q 544 623 586 592 q 646 549 680 478 q 714 407 714 325 q 714 243 679 171 q 645 100 583 56 q 542 27 490 14 q 437 0 367 0 l 38 0 z m 281 32 l 364 32 q 420 32 445 41 q 471 49 488 70 q 510 97 519 144 q 528 191 528 287 l 528 333 q 528 440 522 487 q 516 533 501 561 q 483 594 455 607 q 427 620 364 620 l 281 620 z"},"^":{"x_min":0,"x_max":1000,"ha":1000,"o":"m 442 714 l 557 714 l 797 438 l 742 438 l 499 620 l 256 438 l 201 438 z"},"0":{"x_min":0,"x_max":604,"ha":604,"o":"m 40 327 q 40 398 59 460 q 77 521 112 566 q 151 616 198 641 q 246 666 302 666 q 357 666 405 640 q 453 614 491 564 q 527 517 546 456 q 565 394 565 323 q 565 254 546 196 q 526 138 487 88 q 448 39 401 13 q 354 -13 302 -13 q 251 -13 204 12 q 156 37 119 83 q 82 130 61 194 q 40 258 40 327 z m 302 636 q 271 636 251 624 q 232 611 225 586 q 217 559 213 502 q 210 445 210 297 l 210 273 q 210 98 229 57 q 248 17 302 17 q 356 17 376 59 q 395 100 395 286 l 395 299 q 395 405 394 468 q 392 530 389 550 q 381 596 361 616 q 341 636 302 636 z"},"F":{"x_min":0,"x_max":606,"ha":606,"o":"m 35 0 l 35 32 l 113 32 l 113 620 l 33 620 l 33 650 l 586 650 l 592 461 l 558 461 q 534 549 494 584 q 454 620 378 620 l 278 620 l 278 353 q 282 353 287 352 q 292 352 301 352 q 353 352 380 380 q 408 409 416 471 l 449 471 l 449 194 l 416 194 q 411 261 383 291 q 355 320 297 320 l 278 320 l 278 32 l 373 32 l 373 0 z"},"`":{"x_min":0,"x_max":500,"ha":500,"o":"m 354 456 l 308 456 l 138 544 q 112 557 102 569 q 92 582 92 598 q 92 619 105 632 q 119 646 140 646 q 156 646 172 637 q 188 628 211 604 z"},"k":{"x_min":0,"x_max":547,"ha":547,"o":"m 208 215 l 382 361 l 288 361 l 288 391 l 497 391 l 497 361 l 423 361 l 320 276 l 512 30 l 553 30 l 553 0 l 300 0 l 300 30 l 350 30 z m 18 30 l 67 30 l 67 620 l 18 620 l 18 650 q 58 651 104 654 q 149 657 203 662 l 203 30 l 266 30 l 266 0 l 18 0 z"},"u":{"x_min":0,"x_max":549,"ha":549,"o":"m 479 402 l 479 31 l 543 31 l 543 1 q 496 1 447 -1 q 397 -3 342 -7 l 342 92 q 312 39 274 14 q 236 -10 183 -10 q 149 -10 124 0 q 99 9 84 28 q 75 40 72 56 q 68 73 68 104 l 68 146 l 68 362 l 3 362 l 3 392 q 61 393 111 395 q 161 398 203 402 l 203 87 q 203 60 213 47 q 223 34 244 34 q 281 34 311 78 q 341 122 341 177 l 341 362 l 270 362 l 270 392 q 316 392 367 395 q 418 397 479 402 z"},"]":{"x_min":0,"x_max":370,"ha":370,"o":"m 277 -207 l 32 -207 l 32 -175 l 164 -175 l 164 617 l 32 617 l 32 649 l 277 649 z"},"U":{"x_min":0,"x_max":710,"ha":710,"o":"m 106 176 l 106 620 l 30 620 l 30 650 l 355 650 l 355 620 l 270 620 l 270 179 q 270 97 302 59 q 334 21 403 21 q 439 21 469 31 q 499 42 521 62 q 545 84 556 116 q 566 148 566 228 l 566 238 l 566 569 q 566 602 558 611 q 549 620 517 620 l 485 620 l 485 650 l 691 650 l 691 620 l 659 620 q 625 620 614 610 q 603 600 603 568 l 603 228 q 603 155 596 123 q 589 90 572 67 q 542 25 492 5 q 441 -15 364 -15 q 237 -15 172 34 q 106 83 106 176 z"},"o":{"x_min":0,"x_max":547,"ha":547,"o":"m 38 195 q 38 286 103 344 q 168 402 271 402 q 375 402 440 344 q 505 287 505 196 q 505 105 439 47 q 374 -11 271 -11 q 168 -11 103 46 q 38 104 38 195 z m 272 378 q 226 378 209 348 q 193 319 193 196 l 193 156 q 193 62 209 38 q 226 13 272 13 q 318 13 334 41 q 350 69 350 181 l 350 239 q 350 328 333 353 q 317 378 272 378 z"},"N":{"x_min":0,"x_max":715,"ha":715,"o":"m 27 0 l 27 32 l 77 32 q 97 32 104 41 q 112 49 112 74 l 112 586 q 112 607 104 614 q 95 620 69 620 l 29 620 l 29 650 l 292 650 l 566 276 l 566 572 q 566 602 557 611 q 548 620 518 620 l 476 620 l 476 650 l 684 650 l 684 620 l 646 620 q 622 620 612 610 q 603 600 603 572 l 603 -15 l 576 -15 l 151 570 l 151 68 q 151 51 160 42 q 170 32 188 32 l 246 32 l 246 0 z"},"+":{"x_min":0,"x_max":833,"ha":833,"o":"m 367 596 l 466 596 l 466 347 l 709 347 l 709 250 l 466 250 l 466 0 l 367 0 l 367 250 l 124 250 l 124 347 l 367 347 z"},"G":{"x_min":0,"x_max":714,"ha":714,"o":"m 694 219 l 634 219 l 634 211 q 634 105 564 45 q 495 -15 373 -15 q 324 -15 282 -3 q 240 9 204 34 q 131 84 93 159 q 54 233 54 324 q 54 395 81 457 q 108 520 162 572 q 208 617 262 640 q 317 663 376 663 q 425 663 464 650 q 503 638 532 612 l 569 651 l 598 651 l 603 463 l 567 463 q 542 546 496 590 q 450 633 386 633 q 339 633 311 617 q 282 601 267 567 q 256 542 251 494 q 247 446 247 304 q 247 104 271 60 q 296 15 365 15 q 413 15 438 36 q 464 57 464 96 l 464 219 l 379 219 l 379 250 l 694 250 z"},"q":{"x_min":0,"x_max":553,"ha":553,"o":"m 187 95 q 187 46 198 31 q 210 17 242 17 q 288 17 318 56 q 347 94 347 157 l 347 232 q 347 296 316 335 q 286 373 235 373 q 208 373 197 358 q 187 343 187 293 z m 541 -219 l 275 -219 l 275 -189 l 347 -189 l 347 62 q 325 24 293 6 q 261 -12 219 -12 q 141 -12 87 47 q 34 106 34 194 q 34 284 87 343 q 140 402 219 402 q 261 402 292 383 q 324 365 347 327 l 347 402 q 395 397 445 395 q 496 392 550 390 l 550 360 l 485 360 l 485 -189 l 541 -189 z"},"d":{"x_min":0,"x_max":553,"ha":553,"o":"m 353 157 l 353 232 q 353 296 323 335 q 292 373 242 373 q 214 373 204 358 q 193 344 193 300 l 193 92 q 193 47 204 32 q 215 16 242 16 q 292 16 323 54 q 353 93 353 157 z m 353 0 l 353 62 q 331 25 299 6 q 267 -12 224 -12 q 146 -12 93 47 q 40 106 40 194 q 40 284 92 343 q 145 402 224 402 q 266 402 298 383 q 331 364 353 327 l 353 620 l 276 620 l 276 650 q 338 651 392 655 q 445 658 488 662 l 488 30 l 542 30 l 542 0 z"},"1":{"x_min":0,"x_max":604,"ha":604,"o":"m 106 0 l 106 30 l 231 30 l 231 596 q 231 614 221 620 q 210 625 163 625 l 109 625 l 109 650 q 161 651 219 655 q 276 659 343 666 l 377 666 l 377 30 l 494 30 l 494 0 z"},"5":{"x_min":0,"x_max":604,"ha":604,"o":"m 128 364 q 166 379 202 386 q 239 394 276 394 q 394 394 465 340 q 536 286 536 197 q 536 98 457 42 q 378 -14 239 -14 q 155 -14 103 22 q 50 59 50 116 q 50 150 70 171 q 91 193 123 193 q 156 193 176 173 q 197 153 197 122 q 197 91 172 70 q 148 48 148 45 q 148 32 171 23 q 194 13 229 13 q 299 13 330 53 q 362 93 362 181 q 362 266 324 308 q 287 349 209 349 q 180 349 149 341 q 118 333 115 333 q 109 333 105 338 q 102 343 102 352 l 109 597 q 110 623 121 637 q 133 651 153 651 l 369 651 q 429 651 443 660 q 458 668 460 694 l 483 694 q 481 596 461 566 q 441 535 376 535 l 134 535 z"}}}
